<svg width="44" height="36" viewBox="0 0 44 36" fill="none" xmlns="http://www.w3.org/2000/svg">
  <g clip-path="url(#clip0_1_55)">
    <path d="M32.2895 15.1501V17.7481L29.3179 19.4597L32.2895 15.1501Z" fill="black" />
    <path
      d="M14.3252 4.00813L11.4118 5.69017L11.4155 8.58252L12.8409 8.58111V6.56044L14.3252 5.69009V4.00813ZM17.0296 2.4468L21.2313 0.020874V23.4133L11.4118 17.7441V11.0805L14.3252 11.0791V12.3473L12.841 12.3466V16.9283L17.0296 19.245V2.4468Z"
      fill="#FF7031" />
    <path
      d="M22.4337 0V23.4343L26.6223 21.016L32.2895 12.9612V5.69018L29.3178 3.97457V5.69003L30.811 6.56038V12.5471L26.6225 18.5287L26.6223 2.41822L22.4337 0Z"
      fill="black" />
    <path
      d="M35.9508 6.46173C35.9508 7.00171 36.3796 7.43159 36.9074 7.43159C37.4352 7.43159 37.864 7.00171 37.864 6.46173C37.864 5.93267 37.4352 5.50287 36.9074 5.50287C36.3796 5.50287 35.9508 5.93267 35.9508 6.46173Z"
      stroke="black" stroke-width="1.33333" stroke-miterlimit="10" />
    <path
      d="M39.8651 20.8333C39.8651 20.8333 40.2829 20.701 40.3709 20.8333C40.4479 20.9655 40.6128 21.0096 40.5028 21.5275C40.4039 22.0566 40.4808 21.9464 40.5359 22.1337C40.5798 22.3101 40.6128 22.795 40.3269 22.9714C40.0411 23.1477 39.8651 23.1808 39.7662 22.9934C39.6781 22.806 39.7112 22.3872 39.7002 22.2219C39.7002 22.0566 39.6562 21.9905 39.5463 21.8803C39.4363 21.7701 39.2603 21.737 39.5353 21.5607C39.8211 21.3843 39.8651 20.8333 39.8651 20.8333ZM39.5463 20.2491C39.5463 20.2491 39.4143 19.8744 39.3264 19.676C39.2494 19.4887 38.9855 18.7503 38.5677 18.6621C38.1388 18.5739 38.1059 19.4226 38.1059 19.4226C38.1059 19.4226 38.1278 19.5548 38.3477 19.7642C38.5677 19.9847 38.9306 20.4255 39.0075 20.5687C39.0735 20.7121 39.5353 20.6349 39.5353 20.6349L39.5463 20.2491ZM37.963 18.1882C37.963 18.1882 37.908 18.0339 37.7651 17.7253C37.6111 17.4277 37.1603 15.951 37.0283 15.7746C37.0283 15.7746 36.7315 14.8378 36.5555 14.6504C36.3796 14.4631 36.0938 14.2978 36.0938 14.2978L34.3015 13.9451C34.3015 13.9451 34.2135 14.1435 34.1915 14.3308C34.1696 14.5182 34.1256 14.97 34.3235 15.7084C34.3235 15.7084 34.5105 17.2404 35.533 18.6731L36.0938 18.7944L36.5445 18.3424C36.5445 18.3424 36.4016 17.7363 36.2807 17.5269C36.2807 17.5269 36.8304 18.5298 37.0943 18.6952C37.3582 18.8604 37.963 18.1882 37.963 18.1882ZM36.9514 19.0368C36.9514 19.0368 37.5231 19.4226 37.6331 19.6541C37.7541 19.8855 37.798 20.1169 37.809 20.3043C37.809 20.3043 37.9189 20.4365 37.9409 20.5798C37.963 20.712 37.5451 20.9544 37.5451 20.9544L37.3582 20.8553C37.3582 20.8553 36.6655 19.9626 36.3906 19.7973C36.1267 19.6319 36.9514 19.0368 36.9514 19.0368ZM38.2928 21.1418C38.2928 21.1418 38.5456 21.1198 38.7326 21.0977C38.9196 21.0757 39.1724 21.0757 39.1614 21.3182C39.1614 21.5606 39.1723 21.8141 39.0845 21.9464C38.9965 22.0896 38.9855 22.0787 38.9855 22.3211C38.9965 22.5635 38.8426 23.1588 38.6776 23.324C38.6776 23.324 38.5896 23.3681 38.5127 23.3681C38.4357 23.3681 38.3477 23.324 38.3477 23.1367C38.3477 23.1367 38.3587 22.6076 38.2379 22.4313C38.2379 22.4313 37.809 22.1888 37.9519 21.7039C38.0949 21.219 38.2928 21.1418 38.2928 21.1418ZM37.974 11.0025C37.974 11.0025 38.7106 10.7711 39.0625 10.7048C39.0625 10.7048 39.1064 10.4293 38.8756 10.0106C38.6447 9.58071 38.5677 9.31626 38.5567 9.21699C38.5567 9.21699 38.4468 9.04066 38.3808 8.98557C38.3258 8.93048 38.2707 8.87539 38.2048 8.84236C38.1498 8.80924 38.0069 8.7321 38.1498 8.69899C38.2928 8.67701 38.3148 8.72111 38.3808 8.76521C38.4468 8.8203 38.5567 8.84235 38.5787 8.80924C38.6007 8.7762 38.6226 8.55577 38.7216 8.58881C38.7216 8.58881 38.7766 8.61086 38.7766 8.79825C38.7766 8.79825 38.9635 8.62192 39.0185 8.65496C39.0185 8.65496 39.0845 8.67701 38.9634 8.86433C38.9634 8.86433 39.1505 8.7321 39.1834 8.80924C39.1834 8.80924 39.1943 8.89744 39.1505 8.94147C39.1505 8.94147 39.3374 8.89744 39.3374 8.98557C39.3374 8.98557 39.3703 9.01869 39.2164 9.06271C39.2164 9.06271 39.1614 9.18395 39.0295 9.20608C39.0295 9.20608 39.0845 9.41537 39.1834 9.58071C39.2824 9.74606 39.5023 10.1538 39.5683 10.2861C39.6452 10.4073 39.8211 10.6277 39.8101 10.8151C39.7992 11.0025 39.6782 11.1678 39.4034 11.3221C39.1284 11.4653 38.4907 11.807 38.2379 11.8511C37.9959 11.8841 37.974 11.8731 37.974 11.8731L37.688 11.5425L37.974 11.0025Z"
      fill="black" stroke="black" stroke-width="0.287999" stroke-miterlimit="22.926" />
    <path
      d="M37.1604 10.76C37.1604 10.76 37.1933 10.4845 37.2593 10.3852C37.3362 10.2861 37.6991 10.1428 37.7431 10.0656C37.7761 9.98851 37.886 9.88932 37.875 9.80111C37.875 9.80111 38.0509 9.80111 37.963 9.95539C37.963 9.95539 37.776 10.2971 37.5122 10.4734C37.2483 10.6387 37.2153 10.7048 37.1714 10.8482C37.1273 10.9914 37.4572 11.0685 37.4572 11.0685L37.963 10.9694C37.963 10.9694 38.2599 10.7159 38.2928 10.4954C38.3258 10.275 38.3808 9.95547 38.1499 9.76807C38.1499 9.76807 38.073 9.52559 37.996 9.51461C37.996 9.51461 38.1279 9.20605 37.941 8.98554C37.7431 8.77617 37.5892 8.65493 37.5122 8.61082C37.4242 8.55574 37.3033 8.53368 37.2153 8.57779C37.1273 8.62189 37.2043 8.57779 37.2043 8.57779C37.2043 8.57779 36.7645 8.57779 36.6545 8.91946C36.6545 8.91946 36.2148 8.98554 36.3686 9.13982C36.3686 9.13982 36.3137 9.22802 36.3247 9.28311C36.3247 9.28311 36.2477 9.28311 36.2477 9.3823C36.2477 9.3823 36.2257 9.40435 36.1817 9.4705C36.1268 9.53658 36.0388 9.64683 36.1708 9.75701C36.2917 9.8562 36.4017 9.87825 36.4127 9.97744C36.4236 10.0766 36.4566 10.2309 36.2147 10.3522C35.9838 10.4734 36.2038 10.6718 36.2038 10.6718C36.2038 10.6718 36.8305 10.9363 36.8305 10.9252C36.8305 10.9143 37.1604 10.76 37.1604 10.76ZM34.5545 10.1428C34.5545 10.1428 34.3456 10.2309 33.9937 10.1979C33.6419 10.1538 33.4109 10.1758 33.1691 10.1648C32.9271 10.1648 32.8722 10.0436 32.5203 10.0215C32.1575 10.0106 31.6517 10.0326 31.3878 10.0106C31.1349 9.97744 31.014 9.91137 30.904 9.93342C30.7941 9.96646 30.7501 9.84521 30.5852 9.75701C30.4202 9.67987 30.1124 9.55863 29.9805 9.63577C29.9805 9.63577 29.8375 9.60273 29.8045 9.54772C29.8045 9.54772 29.7056 9.50354 29.7056 9.63577V9.64683C29.7056 9.66888 29.7165 9.74602 29.8155 9.8562C29.9474 9.99949 30.2113 10.1318 30.3652 10.2971C30.5192 10.4623 30.4312 10.4183 30.3763 10.4954C30.3103 10.5836 30.2773 10.6718 30.3652 10.6828C30.4533 10.7048 30.4422 10.6387 30.5631 10.6277C30.6732 10.6057 30.8051 10.5285 30.8491 10.4513C30.893 10.3742 30.981 10.3853 31.2119 10.4293C31.4428 10.4623 31.9816 10.6828 32.1685 10.7159C32.3554 10.7379 32.5093 10.782 32.7732 10.7489C33.0371 10.7269 33.0481 10.7159 33.312 10.76C33.5759 10.793 34.1806 10.9473 34.7304 10.8592C35.2911 10.782 34.5545 10.1428 34.5545 10.1428ZM39.4803 20.0397C39.4803 20.0397 39.3924 20.5467 38.9305 20.4365C38.9305 20.4365 38.9416 20.5908 39.0406 20.7561C39.1395 20.9214 39.4143 21.5275 39.6013 21.6929C39.6013 21.6929 40.03 21.4063 40.0851 21.5276C40.0851 21.5276 40.415 21.241 39.9971 20.8773C39.9971 20.8773 39.5353 20.0839 39.4803 20.0397Z"
      fill="black" stroke="black" stroke-width="0.287999" stroke-miterlimit="22.926" />
    <path
      d="M39.6012 21.7039C39.4473 21.5827 39.2604 21.1969 39.1284 20.9544C39.0845 20.8773 39.0515 20.8112 39.0295 20.7671C38.9305 20.6018 38.9085 20.4475 38.9085 20.4365C38.9085 20.4365 38.9085 20.4254 38.9195 20.4254H38.9305C38.9745 20.4365 39.0186 20.4365 39.0515 20.4365C39.3923 20.4365 39.4583 20.0508 39.4583 20.0397C39.4583 20.0287 39.4693 20.0287 39.4693 20.0287H39.4803C39.5463 20.0728 39.9531 20.7781 40.0081 20.8663C40.151 20.9985 40.2279 21.1198 40.2279 21.252C40.2279 21.4284 40.096 21.5386 40.096 21.5386C40.096 21.5496 40.085 21.5496 40.085 21.5496L40.0741 21.5386C40.0631 21.5165 40.0521 21.5165 40.0191 21.5165C39.8981 21.5165 39.6123 21.7039 39.6123 21.7039H39.6012ZM40.085 21.5055C40.118 21.4835 40.195 21.3843 40.195 21.252C40.195 21.1308 40.1291 21.0096 39.9862 20.8883C39.8652 20.6789 39.5683 20.172 39.4803 20.0618C39.4583 20.161 39.3593 20.4695 39.0515 20.4695C39.0185 20.4695 38.9855 20.4585 38.9416 20.4585C38.9525 20.5026 38.9855 20.6238 39.0515 20.7561C39.0735 20.7892 39.1175 20.8663 39.1504 20.9434C39.2824 21.1859 39.4693 21.5496 39.6122 21.6708C39.6563 21.6378 39.8982 21.4835 40.0191 21.4835C40.0521 21.4835 40.0741 21.4945 40.085 21.5055ZM37.941 18.0669C37.941 18.0669 38.5457 18.6511 38.6447 18.6841C38.6447 18.6841 38.6887 19.4887 38.2049 19.6099C38.2049 19.6099 37.941 19.6208 37.831 19.5438C37.7101 19.4666 37.4132 19.2241 37.3362 19.169C37.2592 19.125 37.1163 19.0809 37.1053 18.9486C37.0834 18.8164 37.1383 18.7502 37.0503 18.7061C36.9624 18.6511 36.9514 18.5739 36.9514 18.5739C36.9514 18.5739 37.7541 18.3425 37.941 18.0669Z"
      fill="black" stroke="black" stroke-width="0.287999" stroke-miterlimit="22.926" />
    <path
      d="M37.8201 19.5547C37.7541 19.5106 37.6331 19.4225 37.5341 19.3343C37.4462 19.2682 37.3583 19.2021 37.3253 19.18C37.3103 19.1662 37.2907 19.1584 37.2703 19.158C37.1933 19.114 37.1053 19.0588 37.0833 18.9486V18.8274C37.0944 18.7723 37.0944 18.7392 37.0503 18.7172C36.9514 18.662 36.9405 18.5849 36.9405 18.5849C36.9405 18.5739 36.9514 18.5628 36.9514 18.5628C36.9624 18.5628 37.7541 18.3314 37.93 18.0559C37.93 18.0559 37.93 18.0449 37.9409 18.0449L37.9519 18.0559C38.1169 18.2212 38.5677 18.651 38.6446 18.673C38.6557 18.673 38.6557 18.673 38.6557 18.6841C38.6557 18.6951 38.6996 19.4997 38.2049 19.6209H38.1939C38.1279 19.6209 37.919 19.6209 37.8201 19.5547ZM37.9409 18.0889C37.7541 18.3424 37.0723 18.5628 36.9733 18.5849C36.9733 18.6069 36.9954 18.662 37.0614 18.6951C37.1273 18.7282 37.1163 18.7723 37.1163 18.8274C37.1053 18.8604 37.1053 18.9045 37.1163 18.9486C37.1273 19.0478 37.2153 19.0919 37.2923 19.1249C37.3032 19.1359 37.3252 19.147 37.3362 19.158C37.3802 19.18 37.4571 19.2462 37.5451 19.3123C37.6551 19.4005 37.7761 19.4887 37.8311 19.5328C37.93 19.5879 38.1279 19.5988 38.1939 19.5988H38.2049C38.6447 19.4887 38.6337 18.7833 38.6337 18.6951C38.5237 18.6401 38.0288 18.1661 37.9409 18.0889ZM37.0064 18.9596C37.0064 18.9596 36.8964 18.7943 36.7315 18.7282C36.7315 18.7282 36.6106 18.2873 36.5116 18.3425C36.4126 18.4086 36.5006 18.3755 36.5006 18.3755C36.5006 18.3755 35.6649 18.6401 35.522 18.6069C35.522 18.6069 35.511 18.7172 35.555 18.8164C35.599 18.9045 35.566 18.9596 35.599 19.1359C35.643 19.3123 36.0168 19.8193 36.4016 19.8413C36.4016 19.8413 36.4896 19.8964 36.5446 19.8744C36.5446 19.8744 37.2043 19.4446 37.0064 18.9596Z"
      fill="black" stroke="black" stroke-width="0.287999" stroke-miterlimit="22.926" />
    <path
      d="M36.3907 19.8523C35.9948 19.8303 35.621 19.3123 35.588 19.1359C35.577 19.0588 35.577 19.0037 35.566 18.9596C35.566 18.9045 35.566 18.8715 35.544 18.8164C35.5 18.7172 35.511 18.6069 35.511 18.6069V18.5959H35.555C35.7309 18.5959 36.2917 18.4196 36.4566 18.3754C36.4566 18.3645 36.4676 18.3535 36.5006 18.3314C36.5115 18.3314 36.5226 18.3203 36.5336 18.3203C36.6215 18.3203 36.7206 18.6401 36.7535 18.7172C36.9074 18.7943 37.0174 18.9486 37.0283 18.9596C37.2153 19.4446 36.5555 19.8854 36.5446 19.8854C36.5446 19.8854 36.5336 19.8963 36.5116 19.8963C36.4676 19.8963 36.4126 19.8634 36.3907 19.8523ZM36.5226 18.3535C36.5116 18.3535 36.5116 18.3645 36.5116 18.3645C36.5226 18.3754 36.5116 18.3865 36.5116 18.3865C36.5116 18.3865 36.4896 18.3976 36.4786 18.3976C36.3137 18.4527 35.7419 18.6179 35.555 18.6179H35.533C35.533 18.651 35.533 18.7392 35.566 18.8053C35.588 18.8604 35.599 18.9045 35.599 18.9596C35.599 19.0037 35.599 19.0588 35.621 19.1359C35.6539 19.2902 36.0168 19.8083 36.4017 19.8193C36.4017 19.8193 36.4016 19.8303 36.4126 19.8303C36.4126 19.8303 36.4676 19.8634 36.5115 19.8634H36.5336C36.5446 19.8523 37.1823 19.4335 36.9954 18.9707C36.9954 18.9707 36.8854 18.8053 36.7315 18.7392H36.7206C36.6765 18.585 36.5885 18.3535 36.5336 18.3535H36.5226ZM37.9299 21.748C37.9299 21.748 38.1059 21.9353 38.1498 21.9464C38.1498 21.9464 38.7766 21.8361 38.4137 21.1418C38.4137 21.1418 37.974 20.4365 37.908 20.4475C37.908 20.4475 37.4571 20.8883 37.3583 20.8553C37.3583 20.8553 37.886 21.6929 37.9299 21.748Z"
      fill="black" stroke="black" stroke-width="0.287999" stroke-miterlimit="22.926" />
    <path
      d="M38.1498 21.9574C38.1059 21.9464 37.941 21.781 37.919 21.759C37.875 21.7039 37.3693 20.8993 37.3472 20.8663C37.3363 20.8553 37.3363 20.8553 37.3472 20.8442H37.3692C37.4572 20.8442 37.7761 20.5576 37.897 20.4365H37.908C37.985 20.4365 38.3258 20.9655 38.4247 21.1307C38.5458 21.3732 38.5677 21.5716 38.5017 21.7149C38.4028 21.9133 38.1609 21.9574 38.1498 21.9574ZM37.3802 20.8663C37.4571 20.9985 37.897 21.6928 37.9409 21.7369C38.0069 21.8031 38.1169 21.9133 38.1498 21.9353C38.1829 21.9243 38.3808 21.8802 38.4688 21.7039C38.5457 21.5606 38.5237 21.3732 38.4028 21.1418C38.1939 20.8222 37.963 20.4806 37.908 20.4695C37.853 20.5246 37.5122 20.8443 37.3802 20.8663Z"
      fill="black" stroke="black" stroke-width="0.287999" stroke-miterlimit="22.926" />
    <path
      d="M38.1389 10.9914C38.1389 10.9914 37.7431 11.4764 38.1719 11.8621C38.1719 11.8621 38.0289 11.8841 37.8751 11.9062C37.7101 11.9282 37.5891 12.0825 37.4572 12.2147C37.3143 12.336 37.0944 12.6115 36.9184 12.876C36.7315 13.1295 36.5006 13.7136 36.3796 13.901C36.2587 14.0773 36.4127 14.0002 36.4897 14.2206C36.5666 14.441 36.7426 14.6834 36.4127 14.7165C36.0718 14.7606 35.566 14.5732 35.3021 14.4741C35.0383 14.3639 34.1476 14.0773 34.1476 14.0773C34.1476 14.0773 34.2576 13.7246 34.3015 13.5703C34.3456 13.405 34.4775 12.7327 34.4775 12.7327C34.5325 12.391 34.5984 12.3139 34.6645 12.0935C34.7194 11.873 34.5545 11.4984 34.7743 10.9693C34.7743 10.9693 34.6645 10.9032 34.5545 10.9032C34.5545 10.9032 34.3675 10.242 34.4885 10.0105C34.4885 10.0105 34.8843 10.0656 35.0383 10.0436C35.1922 10.0105 35.2471 9.93333 35.4341 9.9885C35.621 10.0436 35.9618 10.1758 36.0938 10.242C36.2257 10.3191 36.2917 10.3081 36.2917 10.3081C36.2917 10.3081 36.2367 10.793 37.1604 10.6718L37.1933 10.6387C37.1933 10.6387 37.2263 10.8592 37.3693 10.8371C37.5012 10.8151 37.6111 10.804 37.6881 10.8592C37.7651 10.9252 38.2159 10.8812 38.1389 10.9914Z"
      fill="black" stroke="black" stroke-width="0.287999" stroke-miterlimit="22.926" />
    <path
      d="M35.3021 14.4851C35.0383 14.3859 34.1476 14.0993 34.1367 14.0993C34.1367 14.0883 34.1257 14.0883 34.1257 14.0773C34.1366 14.0773 34.2466 13.7136 34.2905 13.5593C34.3346 13.405 34.4555 12.7437 34.4665 12.7327C34.4994 12.5013 34.5435 12.391 34.5875 12.2699C34.6094 12.2147 34.6205 12.1596 34.6424 12.0825C34.6644 12.0053 34.6644 11.9061 34.6534 11.7959C34.6424 11.5865 34.6205 11.311 34.7524 10.9693C34.7304 10.9583 34.6424 10.9142 34.5545 10.9142C34.5545 10.9142 34.5435 10.9142 34.5435 10.9032C34.5325 10.8812 34.3565 10.242 34.4775 9.99948C34.4775 9.99948 34.4775 9.98842 34.4885 9.98842C34.4885 9.98842 34.7524 10.0326 34.9393 10.0326H35.0383C35.0822 10.0215 35.1262 10.0105 35.1592 9.98842C35.2142 9.97743 35.2581 9.95538 35.3241 9.95538C35.3571 9.95538 35.3901 9.96644 35.4341 9.97743C35.61 10.0326 35.9728 10.1537 36.1047 10.2309C36.2037 10.2861 36.2697 10.297 36.2917 10.297H36.3026L36.3137 10.3081C36.3137 10.3081 36.3027 10.4183 36.3796 10.5175C36.5116 10.6608 36.7755 10.7048 37.1604 10.6608L37.1933 10.6277H37.2042L37.2153 10.6387C37.2153 10.6387 37.2373 10.8371 37.3583 10.826L37.3803 10.815C37.4352 10.815 37.4901 10.804 37.5451 10.804C37.6111 10.804 37.6551 10.815 37.6991 10.8482C37.7211 10.8812 37.82 10.8812 37.908 10.8922C38.0509 10.9032 38.1389 10.9142 38.1609 10.9583C38.1609 10.9693 38.1609 10.9803 38.1499 11.0024C38.1279 11.0244 37.7651 11.4763 38.1829 11.851C38.1829 11.851 38.1938 11.862 38.1829 11.862C38.1829 11.873 38.1829 11.873 38.1719 11.873C38.1719 11.873 38.0289 11.9061 37.8751 11.9171C37.7541 11.9282 37.6551 12.0274 37.5451 12.1376C37.5232 12.1707 37.4902 12.1927 37.4682 12.2257C37.3362 12.3359 37.1273 12.6005 36.9294 12.887C36.8195 13.0303 36.6985 13.2837 36.5885 13.5152C36.5116 13.6805 36.4456 13.8238 36.3906 13.9009C36.3247 14.0001 36.3467 14.0112 36.3906 14.0442C36.4237 14.0773 36.4677 14.1214 36.5006 14.2206C36.5115 14.2537 36.5336 14.2977 36.5446 14.3418C36.5996 14.452 36.6435 14.5622 36.5996 14.6394C36.5666 14.6945 36.5115 14.7165 36.4126 14.7276C36.3796 14.7385 36.3467 14.7385 36.3137 14.7385C36.0059 14.7385 35.61 14.6063 35.3021 14.4851ZM38.1279 10.9803C38.1279 10.9803 38.1389 10.9694 38.1279 10.9694C38.1169 10.9363 37.996 10.9252 37.908 10.9252C37.8091 10.9143 37.7101 10.9032 37.6771 10.8701C37.6441 10.8482 37.6002 10.8371 37.5451 10.8371C37.4902 10.8371 37.4462 10.8371 37.3803 10.8482H37.3693C37.2483 10.8701 37.2043 10.7269 37.1933 10.6718L37.1714 10.6828H37.1604C36.7646 10.7379 36.4897 10.6828 36.3577 10.5285C36.2917 10.4513 36.2808 10.3632 36.2808 10.3191C36.2477 10.3191 36.1818 10.3191 36.0828 10.2529C35.9618 10.1869 35.61 10.0546 35.4231 9.99948C35.3901 9.98841 35.3571 9.97743 35.3132 9.97743C35.2581 9.97743 35.2252 9.99948 35.1702 10.0215C35.1269 10.0352 35.0828 10.0462 35.0383 10.0546C35.0163 10.0656 34.9723 10.0656 34.9393 10.0656C34.7743 10.0656 34.5435 10.0326 34.4885 10.0215C34.3895 10.242 34.5435 10.804 34.5654 10.8922C34.6754 10.8922 34.7743 10.9473 34.7743 10.9583C34.7853 10.9583 34.7853 10.9693 34.7853 10.9693C34.6534 11.311 34.6644 11.5755 34.6864 11.7959C34.6864 11.9061 34.6974 12.0164 34.6754 12.0935C34.6534 12.1707 34.6314 12.2258 34.6094 12.2809C34.5654 12.4021 34.5214 12.5123 34.4885 12.7437C34.4885 12.7657 34.3565 13.4161 34.3126 13.5703C34.2686 13.7136 34.1806 14.0112 34.1586 14.0773C34.2686 14.1104 35.0602 14.3639 35.3132 14.4521C35.489 14.5292 35.9728 14.7055 36.3137 14.7055H36.4017C36.4897 14.6945 36.5446 14.6724 36.5775 14.6284C36.6106 14.5622 36.5666 14.4631 36.5226 14.3418C36.5116 14.3088 36.4897 14.2647 36.4787 14.2206C36.4456 14.1324 36.4017 14.0993 36.3686 14.0663C36.3137 14.0222 36.2917 14.0001 36.3686 13.89C36.4127 13.8128 36.4897 13.6695 36.5666 13.5042C36.6765 13.2728 36.7975 13.0193 36.9075 12.8649C37.1054 12.5784 37.3142 12.325 37.4462 12.2037L37.5342 12.1155C37.6441 12.0053 37.7431 11.9061 37.864 11.8952C37.985 11.8841 38.0949 11.862 38.1499 11.8511C37.7431 11.4654 38.1279 10.9914 38.1279 10.9803Z"
      fill="black" stroke="black" stroke-width="0.287999" stroke-miterlimit="22.926" />
    <path
      d="M36.6765 5.77839C36.4456 5.8666 36.3027 6.03194 36.2477 6.18622C36.4456 6.02088 36.6765 5.98784 36.7865 5.97678C36.7535 5.8666 36.6985 5.81143 36.6765 5.77839ZM36.7316 6.56093C36.7535 6.49478 36.8305 6.30746 36.8195 6.12007C36.6985 6.13106 36.3686 6.16409 36.1817 6.42863C36.1817 6.47273 36.1817 6.59397 36.2257 6.70415C36.3027 6.66012 36.4457 6.58291 36.7316 6.56093ZM37.2263 5.81143C37.1823 5.80052 37.0284 5.74536 36.8855 5.74536H36.8414C36.8745 5.78946 36.9074 5.84455 36.9404 5.93267C36.9954 6.07604 37.0284 6.3405 36.8524 6.71521C36.8855 6.75932 36.9624 6.84744 37.1273 6.90253C37.1972 6.80834 37.2527 6.70437 37.2923 6.59397C37.3802 6.32951 37.3583 6.0649 37.2263 5.81143ZM37.4462 6.68217C37.4022 6.78137 37.3583 6.8585 37.3143 6.91359C37.5122 6.88048 37.5891 6.70415 37.5891 6.68217H37.4462ZM37.5891 6.68217C37.6661 6.38452 37.5672 6.16409 37.4681 6.02088C37.5301 6.23819 37.5224 6.46946 37.4462 6.68217H37.5891ZM37.3802 7.05689C37.3802 7.05689 37.0723 7.15608 36.7095 6.75924C36.5226 6.79235 36.5556 6.79235 36.4786 6.79235C36.4786 6.79235 36.7095 7.3875 37.3472 7.06787L37.3802 7.05689Z"
      fill="black" />
    <path
      d="M36.6105 7.07897C36.4456 6.99076 36.3907 6.83649 36.3907 6.83649C36.3907 6.83649 36.3026 6.84747 36.3026 6.86952C36.3026 6.88051 36.4236 7.04585 36.6105 7.07897Z"
      fill="black" />
    <path
      d="M1.17385 26.463V29.6421H3.62221V30.7017H1.17385V34.9403H4.22593V36H0V29.642L1.17385 29.6421L0 26.463V25.4033H4.22585V26.463H1.17385ZM8.65305 27.7195V26.5967C8.65305 26.4983 8.5971 26.4478 8.48529 26.4478H6.65746C6.54565 26.4478 6.48978 26.4983 6.48978 26.5992V29.4906C6.48978 29.5613 6.52329 29.6067 6.59038 29.6269H8.48536C8.86545 29.6269 9.18406 29.7455 9.44119 29.9826C9.69833 30.2173 9.82689 30.5023 9.82689 30.8354V34.8066C9.82689 35.1094 9.72069 35.3717 9.5082 35.5912C9.29587 35.8133 9.0276 35.9495 8.7033 36H6.43945C6.11531 35.9495 5.84695 35.8133 5.63455 35.5912C5.42214 35.3692 5.31586 35.1068 5.31586 34.8041V33.6687H6.48978V34.7915C6.48978 34.8899 6.54565 34.9403 6.65746 34.9403H8.48521C8.59702 34.9403 8.65297 34.8899 8.65297 34.7889V30.8228C8.65297 30.7521 8.61946 30.7067 8.5523 30.6865H6.65731C6.28844 30.6865 5.97264 30.5679 5.70989 30.3308C5.44715 30.0911 5.31586 29.806 5.31586 29.4729V26.5866C5.31586 26.2838 5.42206 26.0215 5.63447 25.7969C5.84687 25.5748 6.11523 25.4386 6.43937 25.3882H8.70338C9.0276 25.4386 9.29595 25.5749 9.50828 25.7969C9.72077 26.019 9.82697 26.2813 9.82697 26.5841V27.7194L8.65305 27.7195ZM14.2876 25.4033C14.6565 25.4033 14.9723 25.5219 15.2351 25.759C15.4977 25.9962 15.6291 26.2813 15.6291 26.6144V29.4906C15.6291 29.8236 15.4977 30.1087 15.2351 30.3459C14.9723 30.5831 14.6565 30.7017 14.2876 30.7017H12.0907V36H10.9169V25.4033H12.0907H14.2876ZM14.4553 26.6144C14.4553 26.5135 14.3994 26.463 14.2876 26.463H12.0907V29.6421H14.2876C14.3994 29.6421 14.4553 29.5915 14.4553 29.4906V26.6144ZM20.3078 25.3882C20.6321 25.4386 20.9003 25.5749 21.1127 25.7969C21.3252 26.019 21.4314 26.2813 21.4314 26.5866V34.8016C21.4314 35.1068 21.3252 35.3692 21.1127 35.5912C20.9003 35.8133 20.632 35.9495 20.3078 36H17.8427C17.5186 35.9495 17.2501 35.8133 17.0378 35.5912C16.8253 35.3692 16.7191 35.1068 16.7191 34.8015V26.5866C16.7191 26.2813 16.8253 26.0189 17.0378 25.7969C17.2501 25.5748 17.5186 25.4386 17.8427 25.3882H20.3078ZM20.2575 26.5992C20.2575 26.4983 20.2072 26.4478 20.1066 26.4478H18.0607C17.9489 26.4478 17.893 26.4983 17.893 26.5992V34.7888C17.893 34.8898 17.9489 34.9402 18.0607 34.9402H20.1066C20.2072 34.9402 20.2575 34.8898 20.2575 34.7888V26.5992ZM25.892 25.4033C26.261 25.4033 26.5768 25.5219 26.8395 25.759C27.1023 25.9962 27.2337 26.2813 27.2337 26.6144V29.4906C27.2337 29.8236 27.1023 30.1087 26.8395 30.3459C26.5768 30.5831 26.261 30.7017 25.892 30.7017H25.4896L27.2337 36H25.9759L23.9469 29.642H25.892C26.0039 29.642 26.0597 29.5915 26.0597 29.4906V26.6144C26.0597 26.5135 26.0039 26.463 25.892 26.463H23.6953V36H22.5214V25.4033H25.892ZM32.7844 26.463H31.1409V35.9999H29.967V26.4629H28.3237V25.4032H32.7844V26.463ZM35.0482 26.463V29.642H37.4966V30.7017H35.0482V34.9403H38.1003V36H33.8743V29.642H35.0482L33.8743 26.463V25.4033H38.1002V26.463H35.0482ZM42.5274 27.7195V26.5967C42.5274 26.4983 42.4715 26.4478 42.3597 26.4478H40.5318C40.42 26.4478 40.3642 26.4983 40.3642 26.5992V29.4906C40.3642 29.5613 40.3977 29.6067 40.4647 29.6269H42.3597C42.7398 29.6269 43.0584 29.7455 43.3156 29.9826C43.5727 30.2173 43.7013 30.5023 43.7013 30.8354V34.8066C43.7013 35.1094 43.5951 35.3717 43.3826 35.5912C43.1702 35.8133 42.9019 35.9495 42.5777 36H40.3138C39.9897 35.9495 39.7213 35.8133 39.5089 35.5912C39.2965 35.3692 39.1902 35.1068 39.1902 34.8041V33.6687H40.3642V34.7915C40.3642 34.8899 40.42 34.9403 40.5318 34.9403H42.3597C42.4715 34.9403 42.5274 34.8899 42.5274 34.7889V30.8228C42.5274 30.7521 42.4939 30.7067 42.4267 30.6865H40.5318C40.1629 30.6865 39.8471 30.5679 39.5843 30.3308C39.3216 30.0911 39.1903 29.806 39.1903 29.4729V26.5866C39.1903 26.2838 39.2964 26.0215 39.5088 25.7969C39.7213 25.5748 39.9896 25.4386 40.3138 25.3882H42.5777C42.9019 25.4386 43.1702 25.5749 43.3826 25.7969C43.5951 26.019 43.7013 26.2813 43.7013 26.5841V27.7194L42.5274 27.7195Z"
      fill="black" />
    <path fill-rule="evenodd" clip-rule="evenodd"
      d="M7.51996 7.78646C7.62749 7.56065 7.92124 7.33586 7.92646 7.03821C7.7901 7.0513 7.71507 7.1808 7.65484 7.30446C7.62032 7.15174 7.66964 7.30399 7.65787 7.19872C7.64019 7.04016 7.69972 7.17301 7.62258 7.07623C7.44313 7.2623 7.43246 7.40224 7.22449 7.54569C7.30194 7.37006 7.38095 7.3509 7.40744 7.19015C7.32571 7.20051 6.97437 7.59198 6.90004 7.68369C6.68623 7.94736 6.71615 8.06892 6.55852 8.37062C6.48543 8.51048 5.94872 8.84998 5.76795 9.07968C5.68364 9.18674 5.62941 9.23209 5.53381 9.34889C5.29506 9.64039 4.86893 10.4571 5.18333 10.8309C5.3567 11.0371 5.98496 11.5622 6.28526 11.7217C6.3084 12.21 6.46665 12.129 6.81752 12.2782C7.42217 12.5351 7.44134 13.0612 7.66715 13.6396C8.09126 14.7257 7.57754 14.7217 7.49549 15.4041C7.45591 15.7337 7.60653 15.6467 7.50157 15.888C7.29579 16.3608 7.26431 15.9215 7.02471 17.0989C6.80498 18.1795 6.65927 17.8444 7.02338 18.2487L6.89848 18.5254C6.78098 18.5386 6.81401 18.4796 6.63457 18.4336C6.38398 18.3694 5.89044 18.4358 5.63128 18.4492C5.06816 18.4782 5.16798 18.3847 5.07557 18.246C4.90703 17.9935 4.92183 18.1461 4.81119 17.7384C4.08195 17.6551 4.13563 18.3294 4.10189 18.4521C4.002 18.8149 3.66009 18.9023 3.51742 19.3143C3.32886 19.8591 3.81725 19.9236 4.13018 19.5677C4.33183 19.3385 4.23583 19.3466 4.57174 19.3087C4.80877 19.2818 4.82288 19.1317 4.96625 19.0209C5.29623 19.168 5.65443 19.3334 5.99158 19.4856C6.94281 19.915 6.69293 20.1762 7.45007 19.4775C8.11206 18.8667 7.93028 19.127 8.15476 19.0329C8.24047 18.9969 8.5915 18.5541 8.66825 18.4044L8.99473 18.598L8.91393 19.6335C8.10575 19.8181 7.84457 20.2252 7.42435 20.7073C6.47561 21.7957 6.41904 21.1265 5.78439 21.1172C5.48939 21.7473 5.66829 21.7296 5.5603 22.3933C5.51448 22.6751 5.20779 23.3283 5.51316 23.5675C5.73671 23.5589 5.73967 23.3088 5.85592 23.0874C5.95628 22.8964 6.10838 22.8261 6.2731 22.7107C6.6415 22.4528 6.57512 22.4823 6.6514 22.2494C6.86778 21.5884 8.66848 21.1978 9.21057 20.8301C9.42157 20.6869 9.92562 20.2369 9.99988 19.9855C10.0786 19.7193 10.2224 18.8438 10.2563 18.5304C10.332 17.8322 10.3991 17.772 10.3377 16.9965C10.2946 16.4521 10.2363 15.9484 10.228 15.3873C10.3701 15.3266 10.5569 15.1858 10.489 14.9376C10.4083 14.6434 10.2978 14.8651 10.3288 14.4559C10.3406 14.3 10.2813 13.9052 10.2371 13.7819C10.1305 13.4854 10.1711 13.4458 10.1411 13.1221C10.1074 12.7594 9.90724 12.1247 10.0649 11.8239C10.1875 11.5901 10.5776 11.4404 10.6338 11.3177L10.6634 11.1036C10.6666 11.0156 11.8381 10.3712 12.165 10.1036C12.3816 9.92627 12.5602 9.66228 12.7377 9.41466C12.9462 9.12402 12.7645 9.28765 13.0852 9.13804C13.2161 9.07695 13.3152 8.95743 13.3663 8.83104L13.3205 8.81912C13.3156 8.81897 13.3026 8.81725 13.2973 8.81756L13.1808 8.86096C13.1621 8.62736 13.2698 8.67092 13.4 8.55272C13.4655 8.49326 13.4468 8.55194 13.4598 8.31678C12.8514 8.27509 12.968 8.73583 12.418 9.135C12.2701 9.24245 11.998 9.39144 11.8175 9.47839C11.4257 9.66719 11.5401 9.62145 11.2972 9.86931C11.1654 10.0038 10.1614 10.3509 9.95446 10.388C9.66787 10.4393 9.42211 10.3371 9.17012 10.5233C9.01756 10.6362 8.77757 10.8571 8.55831 10.7268C8.44088 10.5934 8.7549 10.2756 8.75638 10.2711C8.84637 9.99881 8.40107 9.46156 8.40107 9.46156C8.36273 9.36728 8.37987 9.3284 8.33 9.2303C8.22185 9.01735 8.21414 9.19306 8.17946 8.96561C8.09882 8.43755 7.51684 8.78554 7.32875 8.94348C7.14844 9.09488 7.13239 9.39814 7.00491 9.69696C6.81534 10.1412 7.05377 10.1348 7.4863 10.6522C7.64993 10.848 7.64291 10.7265 7.80569 10.8112C7.57801 10.9472 7.04847 10.927 6.78355 10.8297C6.53499 10.7384 6.31681 10.5159 5.96984 10.4088C6.11087 10.1572 6.20679 10.0267 6.32702 9.67903C6.43525 9.36619 6.6761 8.77323 6.91998 8.65191C7.17805 8.52358 7.73221 8.29777 7.82026 8.02108C7.72652 7.94456 7.63769 7.99474 7.57809 8.02201C7.67486 7.83267 7.8942 7.71517 7.87854 7.50151C7.63388 7.5379 7.71359 7.74836 7.51996 7.78646Z"
      fill="black" />
  </g>
  <defs>
    <clipPath id="clip0_1_55">
      <rect width="44" height="36" fill="white" />
    </clipPath>
  </defs>
</svg>