<svg width="86" height="24" viewBox="0 0 86 24" fill="none" xmlns="http://www.w3.org/2000/svg">
  <g clip-path="url(#clip0_1_38)">
    <path d="M29.2895 15.1501V17.7481L26.3179 19.4597L29.2895 15.1501Z" fill="black" />
    <path
      d="M11.3252 4.00813L8.41177 5.69017L8.41551 8.58252L9.84088 8.58111V6.56044L11.3252 5.69009V4.00813ZM14.0296 2.4468L18.2313 0.020874V23.4133L8.41185 17.7441V11.0805L11.3252 11.0791V12.3473L9.84096 12.3466V16.9283L14.0296 19.245V2.4468Z"
      fill="#FF7031" />
    <path
      d="M19.4337 0V23.4343L23.6223 21.016L29.2895 12.9612V5.69018L26.3178 3.97457V5.69003L27.811 6.56038V12.5471L23.6224 18.5287L23.6223 2.41822L19.4337 0Z"
      fill="black" />
    <path
      d="M32.9508 6.46174C32.9508 7.00172 33.3796 7.4316 33.9074 7.4316C34.4352 7.4316 34.864 7.00172 34.864 6.46174C34.864 5.93268 34.4352 5.50287 33.9074 5.50287C33.3796 5.50287 32.9508 5.93268 32.9508 6.46174Z"
      stroke="black" stroke-width="1.33333" stroke-miterlimit="10" />
    <path
      d="M36.8651 20.8332C36.8651 20.8332 37.2829 20.701 37.3709 20.8332C37.4479 20.9655 37.6128 21.0096 37.5028 21.5275C37.4039 22.0566 37.4808 21.9464 37.5359 22.1337C37.5798 22.31 37.6128 22.795 37.3269 22.9713C37.0411 23.1477 36.8651 23.1808 36.7662 22.9934C36.6781 22.806 36.7112 22.3872 36.7002 22.2219C36.7002 22.0566 36.6562 21.9905 36.5463 21.8802C36.4363 21.7701 36.2603 21.737 36.5353 21.5606C36.8211 21.3843 36.8651 20.8332 36.8651 20.8332ZM36.5463 20.2491C36.5463 20.2491 36.4143 19.8744 36.3264 19.676C36.2494 19.4887 35.9855 18.7502 35.5677 18.662C35.1388 18.5739 35.1059 19.4225 35.1059 19.4225C35.1059 19.4225 35.1278 19.5548 35.3477 19.7642C35.5677 19.9846 35.9306 20.4254 36.0075 20.5687C36.0735 20.7121 36.5353 20.6349 36.5353 20.6349L36.5463 20.2491ZM34.963 18.1882C34.963 18.1882 34.908 18.0339 34.7651 17.7253C34.6111 17.4276 34.1603 15.9509 34.0283 15.7746C34.0283 15.7746 33.7315 14.8378 33.5555 14.6504C33.3796 14.4631 33.0938 14.2977 33.0938 14.2977L31.3015 13.9451C31.3015 13.9451 31.2135 14.1434 31.1915 14.3308C31.1696 14.5182 31.1256 14.97 31.3235 15.7084C31.3235 15.7084 31.5105 17.2403 32.533 18.6731L33.0938 18.7943L33.5445 18.3424C33.5445 18.3424 33.4016 17.7363 33.2807 17.5269C33.2807 17.5269 33.8304 18.5298 34.0943 18.6952C34.3582 18.8604 34.963 18.1882 34.963 18.1882ZM33.9514 19.0367C33.9514 19.0367 34.5231 19.4225 34.6331 19.654C34.7541 19.8854 34.798 20.1169 34.809 20.3043C34.809 20.3043 34.9189 20.4365 34.9409 20.5798C34.963 20.712 34.5451 20.9544 34.5451 20.9544L34.3582 20.8553C34.3582 20.8553 33.6655 19.9626 33.3906 19.7972C33.1267 19.6319 33.9514 19.0367 33.9514 19.0367ZM35.2928 21.1418C35.2928 21.1418 35.5456 21.1198 35.7326 21.0977C35.9196 21.0757 36.1724 21.0757 36.1614 21.3182C36.1614 21.5606 36.1723 21.8141 36.0845 21.9464C35.9965 22.0896 35.9855 22.0786 35.9855 22.3211C35.9965 22.5635 35.8426 23.1587 35.6776 23.324C35.6776 23.324 35.5896 23.3681 35.5127 23.3681C35.4357 23.3681 35.3477 23.324 35.3477 23.1367C35.3477 23.1367 35.3587 22.6076 35.2379 22.4313C35.2379 22.4313 34.809 22.1888 34.9519 21.7039C35.0949 21.2189 35.2928 21.1418 35.2928 21.1418ZM34.974 11.0025C34.974 11.0025 35.7106 10.771 36.0625 10.7048C36.0625 10.7048 36.1064 10.4293 35.8756 10.0106C35.6447 9.58065 35.5677 9.3162 35.5567 9.21693C35.5567 9.21693 35.4468 9.0406 35.3808 8.98551C35.3258 8.93042 35.2707 8.87533 35.2048 8.8423C35.1498 8.80918 35.0069 8.73204 35.1498 8.69892C35.2928 8.67695 35.3148 8.72105 35.3808 8.76515C35.4468 8.82024 35.5567 8.84229 35.5787 8.80918C35.6007 8.77614 35.6226 8.55571 35.7216 8.58875C35.7216 8.58875 35.7766 8.6108 35.7766 8.79819C35.7766 8.79819 35.9635 8.62186 36.0185 8.6549C36.0185 8.6549 36.0845 8.67695 35.9634 8.86427C35.9634 8.86427 36.1505 8.73204 36.1834 8.80918C36.1834 8.80918 36.1943 8.89738 36.1505 8.94141C36.1505 8.94141 36.3374 8.89738 36.3374 8.98551C36.3374 8.98551 36.3703 9.01863 36.2164 9.06265C36.2164 9.06265 36.1614 9.18389 36.0295 9.20602C36.0295 9.20602 36.0845 9.41531 36.1834 9.58065C36.2824 9.746 36.5023 10.1538 36.5683 10.2861C36.6452 10.4072 36.8211 10.6277 36.8101 10.8151C36.7992 11.0025 36.6782 11.1677 36.4034 11.3221C36.1284 11.4653 35.4907 11.807 35.2379 11.8511C34.9959 11.8841 34.974 11.873 34.974 11.873L34.688 11.5424L34.974 11.0025Z"
      fill="black" stroke="black" stroke-width="0.287999" stroke-miterlimit="22.926" />
    <path
      d="M34.1603 10.76C34.1603 10.76 34.1933 10.4844 34.2593 10.3852C34.3362 10.286 34.6991 10.1428 34.743 10.0656C34.7761 9.98851 34.886 9.88932 34.875 9.80111C34.875 9.80111 35.0509 9.80111 34.963 9.95539C34.963 9.95539 34.776 10.297 34.5121 10.4734C34.2482 10.6387 34.2153 10.7048 34.1713 10.8482C34.1273 10.9914 34.4571 11.0685 34.4571 11.0685L34.963 10.9693C34.963 10.9693 35.2599 10.7159 35.2928 10.4954C35.3258 10.275 35.3808 9.95547 35.1498 9.76807C35.1498 9.76807 35.0729 9.52559 34.9959 9.51461C34.9959 9.51461 35.1279 9.20605 34.9409 8.98554C34.743 8.77617 34.5891 8.65493 34.5121 8.61082C34.4242 8.55574 34.3032 8.53368 34.2153 8.57779C34.1273 8.62189 34.2043 8.57779 34.2043 8.57779C34.2043 8.57779 33.7644 8.57779 33.6545 8.91946C33.6545 8.91946 33.2147 8.98554 33.3686 9.13982C33.3686 9.13982 33.3137 9.22802 33.3247 9.28311C33.3247 9.28311 33.2477 9.28311 33.2477 9.3823C33.2477 9.3823 33.2257 9.40435 33.1817 9.4705C33.1268 9.53658 33.0388 9.64683 33.1708 9.75701C33.2917 9.8562 33.4016 9.87825 33.4126 9.97744C33.4235 10.0766 33.4566 10.2309 33.2147 10.3522C32.9838 10.4734 33.2037 10.6717 33.2037 10.6717C33.2037 10.6717 33.8304 10.9363 33.8304 10.9252C33.8304 10.9143 34.1603 10.76 34.1603 10.76ZM31.5544 10.1428C31.5544 10.1428 31.3455 10.2309 30.9936 10.1978C30.6418 10.1537 30.4109 10.1758 30.169 10.1648C29.9271 10.1648 29.8722 10.0436 29.5203 10.0215C29.1575 10.0105 28.6517 10.0326 28.3878 10.0105C28.1349 9.97744 28.0139 9.91137 27.904 9.93342C27.7941 9.96646 27.75 9.84521 27.5852 9.75701C27.4202 9.67987 27.1124 9.55863 26.9804 9.63577C26.9804 9.63577 26.8374 9.60273 26.8045 9.54772C26.8045 9.54772 26.7055 9.50354 26.7055 9.63577V9.64683C26.7055 9.66888 26.7164 9.74602 26.8155 9.8562C26.9474 9.99949 27.2113 10.1318 27.3652 10.297C27.5192 10.4623 27.4312 10.4183 27.3763 10.4954C27.3103 10.5835 27.2773 10.6717 27.3652 10.6827C27.4532 10.7048 27.4422 10.6387 27.5631 10.6276C27.6731 10.6057 27.805 10.5285 27.8491 10.4513C27.893 10.3742 27.981 10.3852 28.2119 10.4293C28.4427 10.4623 28.9815 10.6827 29.1685 10.7158C29.3554 10.7379 29.5093 10.782 29.7731 10.7489C30.0371 10.7269 30.0481 10.7159 30.3119 10.76C30.5758 10.793 31.1806 10.9473 31.7304 10.8591C32.2911 10.782 31.5544 10.1428 31.5544 10.1428ZM36.4803 20.0397C36.4803 20.0397 36.3923 20.5466 35.9305 20.4365C35.9305 20.4365 35.9416 20.5907 36.0405 20.7561C36.1395 20.9213 36.4143 21.5275 36.6012 21.6929C36.6012 21.6929 37.03 21.4063 37.085 21.5276C37.085 21.5276 37.4149 21.241 36.9971 20.8772C36.9971 20.8772 36.5353 20.0839 36.4803 20.0397Z"
      fill="black" stroke="black" stroke-width="0.287999" stroke-miterlimit="22.926" />
    <path
      d="M36.6012 21.7039C36.4473 21.5826 36.2604 21.1969 36.1284 20.9544C36.0845 20.8772 36.0515 20.8112 36.0294 20.7671C35.9305 20.6017 35.9085 20.4474 35.9085 20.4365C35.9085 20.4365 35.9085 20.4254 35.9195 20.4254H35.9305C35.9745 20.4365 36.0185 20.4365 36.0515 20.4365C36.3923 20.4365 36.4582 20.0508 36.4582 20.0397C36.4582 20.0286 36.4693 20.0286 36.4693 20.0286H36.4803C36.5463 20.0727 36.9531 20.7781 37.008 20.8663C37.151 20.9985 37.2279 21.1197 37.2279 21.252C37.2279 21.4284 37.096 21.5385 37.096 21.5385C37.096 21.5495 37.085 21.5495 37.085 21.5495L37.074 21.5385C37.063 21.5165 37.0521 21.5165 37.019 21.5165C36.8981 21.5165 36.6123 21.7039 36.6123 21.7039H36.6012ZM37.085 21.5055C37.118 21.4835 37.195 21.3843 37.195 21.252C37.195 21.1308 37.129 21.0096 36.9861 20.8883C36.8651 20.6789 36.5683 20.1719 36.4803 20.0617C36.4583 20.1609 36.3593 20.4695 36.0515 20.4695C36.0185 20.4695 35.9855 20.4585 35.9416 20.4585C35.9525 20.5025 35.9855 20.6238 36.0514 20.7561C36.0735 20.7891 36.1175 20.8663 36.1504 20.9434C36.2824 21.1859 36.4693 21.5496 36.6122 21.6708C36.6562 21.6377 36.8982 21.4835 37.019 21.4835C37.0521 21.4835 37.074 21.4944 37.085 21.5055ZM34.9409 18.0669C34.9409 18.0669 35.5457 18.651 35.6447 18.6841C35.6447 18.6841 35.6886 19.4887 35.2048 19.6099C35.2048 19.6099 34.9409 19.6208 34.831 19.5437C34.7101 19.4666 34.4132 19.2241 34.3362 19.169C34.2592 19.1249 34.1163 19.0808 34.1053 18.9486C34.0833 18.8164 34.1383 18.7502 34.0503 18.7061C33.9624 18.651 33.9514 18.5739 33.9514 18.5739C33.9514 18.5739 34.7541 18.3425 34.9409 18.0669Z"
      fill="black" stroke="black" stroke-width="0.287999" stroke-miterlimit="22.926" />
    <path
      d="M34.8201 19.5547C34.7541 19.5106 34.6331 19.4225 34.5341 19.3343C34.4462 19.2682 34.3583 19.2021 34.3253 19.18C34.3103 19.1662 34.2907 19.1584 34.2703 19.158C34.1933 19.114 34.1053 19.0588 34.0833 18.9486V18.8274C34.0944 18.7723 34.0944 18.7392 34.0503 18.7172C33.9514 18.662 33.9405 18.5849 33.9405 18.5849C33.9405 18.5739 33.9514 18.5628 33.9514 18.5628C33.9624 18.5628 34.7541 18.3314 34.93 18.0559C34.93 18.0559 34.93 18.0449 34.9409 18.0449L34.9519 18.0559C35.1169 18.2212 35.5677 18.651 35.6446 18.673C35.6557 18.673 35.6557 18.673 35.6557 18.6841C35.6557 18.6951 35.6996 19.4997 35.2049 19.6209H35.1939C35.1279 19.6209 34.919 19.6209 34.8201 19.5547ZM34.9409 18.0889C34.7541 18.3424 34.0723 18.5628 33.9733 18.5849C33.9733 18.6069 33.9954 18.662 34.0614 18.6951C34.1273 18.7282 34.1163 18.7723 34.1163 18.8274C34.1053 18.8604 34.1053 18.9045 34.1163 18.9486C34.1273 19.0478 34.2153 19.0919 34.2923 19.1249C34.3032 19.1359 34.3252 19.147 34.3362 19.158C34.3802 19.18 34.4571 19.2462 34.5451 19.3123C34.6551 19.4005 34.7761 19.4887 34.8311 19.5328C34.93 19.5879 35.1279 19.5988 35.1939 19.5988H35.2049C35.6447 19.4887 35.6337 18.7833 35.6337 18.6951C35.5237 18.6401 35.0288 18.1661 34.9409 18.0889ZM34.0064 18.9596C34.0064 18.9596 33.8964 18.7943 33.7315 18.7282C33.7315 18.7282 33.6106 18.2873 33.5116 18.3425C33.4126 18.4086 33.5006 18.3755 33.5006 18.3755C33.5006 18.3755 32.6649 18.6401 32.522 18.6069C32.522 18.6069 32.511 18.7172 32.555 18.8164C32.599 18.9045 32.566 18.9596 32.599 19.1359C32.643 19.3123 33.0168 19.8193 33.4016 19.8413C33.4016 19.8413 33.4896 19.8964 33.5446 19.8744C33.5446 19.8744 34.2043 19.4446 34.0064 18.9596Z"
      fill="black" stroke="black" stroke-width="0.287999" stroke-miterlimit="22.926" />
    <path
      d="M33.3907 19.8523C32.9948 19.8303 32.621 19.3123 32.588 19.1359C32.577 19.0588 32.577 19.0037 32.566 18.9596C32.566 18.9045 32.566 18.8715 32.544 18.8164C32.5 18.7172 32.511 18.6069 32.511 18.6069V18.5959H32.555C32.7309 18.5959 33.2917 18.4196 33.4566 18.3754C33.4566 18.3645 33.4676 18.3535 33.5006 18.3314C33.5115 18.3314 33.5226 18.3203 33.5336 18.3203C33.6215 18.3203 33.7206 18.6401 33.7535 18.7172C33.9074 18.7943 34.0174 18.9486 34.0283 18.9596C34.2153 19.4446 33.5555 19.8854 33.5446 19.8854C33.5446 19.8854 33.5336 19.8963 33.5116 19.8963C33.4676 19.8963 33.4126 19.8634 33.3907 19.8523ZM33.5226 18.3535C33.5116 18.3535 33.5116 18.3645 33.5116 18.3645C33.5226 18.3754 33.5116 18.3865 33.5116 18.3865C33.5116 18.3865 33.4896 18.3976 33.4786 18.3976C33.3137 18.4527 32.7419 18.6179 32.555 18.6179H32.533C32.533 18.651 32.533 18.7392 32.566 18.8053C32.588 18.8604 32.599 18.9045 32.599 18.9596C32.599 19.0037 32.599 19.0588 32.621 19.1359C32.6539 19.2902 33.0168 19.8083 33.4017 19.8193C33.4017 19.8193 33.4016 19.8303 33.4126 19.8303C33.4126 19.8303 33.4676 19.8634 33.5115 19.8634H33.5336C33.5446 19.8523 34.1823 19.4335 33.9954 18.9707C33.9954 18.9707 33.8854 18.8053 33.7315 18.7392H33.7206C33.6765 18.585 33.5885 18.3535 33.5336 18.3535H33.5226ZM34.9299 21.748C34.9299 21.748 35.1059 21.9353 35.1498 21.9464C35.1498 21.9464 35.7766 21.8361 35.4137 21.1418C35.4137 21.1418 34.974 20.4365 34.908 20.4475C34.908 20.4475 34.4571 20.8883 34.3583 20.8553C34.3583 20.8553 34.886 21.6929 34.9299 21.748Z"
      fill="black" stroke="black" stroke-width="0.287999" stroke-miterlimit="22.926" />
    <path
      d="M35.1498 21.9574C35.1059 21.9464 34.941 21.781 34.919 21.759C34.875 21.7039 34.3693 20.8993 34.3472 20.8663C34.3363 20.8553 34.3363 20.8553 34.3472 20.8442H34.3692C34.4572 20.8442 34.7761 20.5576 34.897 20.4365H34.908C34.985 20.4365 35.3258 20.9655 35.4247 21.1307C35.5458 21.3732 35.5677 21.5716 35.5017 21.7149C35.4028 21.9133 35.1609 21.9574 35.1498 21.9574ZM34.3802 20.8663C34.4571 20.9985 34.897 21.6928 34.9409 21.7369C35.0069 21.8031 35.1169 21.9133 35.1498 21.9353C35.1829 21.9243 35.3808 21.8802 35.4688 21.7039C35.5457 21.5606 35.5237 21.3732 35.4028 21.1418C35.1939 20.8222 34.963 20.4806 34.908 20.4695C34.853 20.5246 34.5122 20.8443 34.3802 20.8663Z"
      fill="black" stroke="black" stroke-width="0.287999" stroke-miterlimit="22.926" />
    <path
      d="M35.1389 10.9914C35.1389 10.9914 34.743 11.4764 35.1719 11.8621C35.1719 11.8621 35.0289 11.8841 34.875 11.9062C34.7101 11.9282 34.5891 12.0825 34.4571 12.2147C34.3142 12.336 34.0943 12.6115 33.9184 12.876C33.7315 13.1295 33.5006 13.7136 33.3796 13.901C33.2587 14.0773 33.4126 14.0002 33.4896 14.2206C33.5665 14.441 33.7425 14.6834 33.4126 14.7165C33.0717 14.7606 32.566 14.5732 32.3021 14.4741C32.0382 14.3639 31.1476 14.0773 31.1476 14.0773C31.1476 14.0773 31.2576 13.7246 31.3015 13.5703C31.3455 13.405 31.4774 12.7327 31.4774 12.7327C31.5325 12.391 31.5984 12.3139 31.6644 12.0935C31.7194 11.873 31.5544 11.4984 31.7743 10.9693C31.7743 10.9693 31.6644 10.9032 31.5544 10.9032C31.5544 10.9032 31.3675 10.242 31.4884 10.0105C31.4884 10.0105 31.8843 10.0656 32.0382 10.0436C32.1922 10.0105 32.247 9.93333 32.4341 9.9885C32.621 10.0436 32.9618 10.1758 33.0938 10.242C33.2257 10.3191 33.2917 10.3081 33.2917 10.3081C33.2917 10.3081 33.2367 10.793 34.1603 10.6718L34.1933 10.6387C34.1933 10.6387 34.2263 10.8592 34.3692 10.8371C34.5012 10.8151 34.6111 10.804 34.6881 10.8592C34.7651 10.9252 35.2158 10.8812 35.1389 10.9914Z"
      fill="black" stroke="black" stroke-width="0.287999" stroke-miterlimit="22.926" />
    <path
      d="M32.3021 14.4851C32.0382 14.3859 31.1476 14.0993 31.1366 14.0993C31.1366 14.0883 31.1256 14.0883 31.1256 14.0773C31.1365 14.0773 31.2466 13.7136 31.2905 13.5593C31.3345 13.405 31.4555 12.7437 31.4665 12.7327C31.4994 12.5013 31.5434 12.391 31.5875 12.2699C31.6094 12.2147 31.6204 12.1596 31.6424 12.0825C31.6644 12.0053 31.6644 11.9061 31.6534 11.7959C31.6424 11.5865 31.6204 11.311 31.7523 10.9693C31.7304 10.9583 31.6424 10.9142 31.5544 10.9142C31.5544 10.9142 31.5434 10.9142 31.5434 10.9032C31.5325 10.8812 31.3565 10.242 31.4774 9.99948C31.4774 9.99948 31.4774 9.98842 31.4884 9.98842C31.4884 9.98842 31.7523 10.0326 31.9393 10.0326H32.0382C32.0822 10.0215 32.1262 10.0105 32.1592 9.98842C32.2142 9.97743 32.2581 9.95538 32.3241 9.95538C32.3571 9.95538 32.3901 9.96644 32.4341 9.97743C32.61 10.0326 32.9728 10.1537 33.1047 10.2309C33.2037 10.2861 33.2697 10.297 33.2917 10.297H33.3026L33.3137 10.3081C33.3137 10.3081 33.3027 10.4183 33.3796 10.5175C33.5116 10.6608 33.7754 10.7048 34.1603 10.6608L34.1933 10.6277H34.2042L34.2153 10.6387C34.2153 10.6387 34.2373 10.8371 34.3583 10.826L34.3802 10.815C34.4352 10.815 34.4901 10.804 34.5451 10.804C34.6111 10.804 34.6551 10.815 34.6991 10.8482C34.7211 10.8812 34.82 10.8812 34.908 10.8922C35.0509 10.9032 35.1389 10.9142 35.1609 10.9583C35.1609 10.9693 35.1609 10.9803 35.1498 11.0024C35.1279 11.0244 34.7651 11.4763 35.1829 11.851C35.1829 11.851 35.1938 11.862 35.1829 11.862C35.1829 11.873 35.1829 11.873 35.1719 11.873C35.1719 11.873 35.0289 11.9061 34.875 11.9171C34.7541 11.9282 34.6551 12.0274 34.5451 12.1376C34.5231 12.1707 34.4902 12.1927 34.4681 12.2257C34.3362 12.3359 34.1273 12.6005 33.9294 12.887C33.8194 13.0303 33.6985 13.2837 33.5885 13.5152C33.5116 13.6805 33.4456 13.8238 33.3906 13.9009C33.3247 14.0001 33.3466 14.0112 33.3906 14.0442C33.4236 14.0773 33.4676 14.1214 33.5006 14.2206C33.5115 14.2537 33.5336 14.2977 33.5446 14.3418C33.5996 14.452 33.6435 14.5622 33.5996 14.6394C33.5665 14.6945 33.5115 14.7165 33.4126 14.7276C33.3796 14.7385 33.3466 14.7385 33.3137 14.7385C33.0058 14.7385 32.61 14.6063 32.3021 14.4851ZM35.1279 10.9803C35.1279 10.9803 35.1389 10.9694 35.1279 10.9694C35.1169 10.9363 34.9959 10.9252 34.908 10.9252C34.809 10.9143 34.7101 10.9032 34.6771 10.8701C34.6441 10.8482 34.6001 10.8371 34.5451 10.8371C34.4902 10.8371 34.4462 10.8371 34.3802 10.8482H34.3692C34.2482 10.8701 34.2043 10.7269 34.1933 10.6718L34.1713 10.6828H34.1603C33.7645 10.7379 33.4896 10.6828 33.3576 10.5285C33.2917 10.4513 33.2807 10.3632 33.2807 10.3191C33.2477 10.3191 33.1818 10.3191 33.0828 10.2529C32.9618 10.1869 32.61 10.0546 32.4231 9.99948C32.3901 9.98841 32.3571 9.97743 32.3131 9.97743C32.2581 9.97743 32.2252 9.99948 32.1701 10.0215C32.1269 10.0352 32.0828 10.0462 32.0382 10.0546C32.0163 10.0656 31.9722 10.0656 31.9393 10.0656C31.7743 10.0656 31.5434 10.0326 31.4884 10.0215C31.3895 10.242 31.5434 10.804 31.5654 10.8922C31.6754 10.8922 31.7743 10.9473 31.7743 10.9583C31.7853 10.9583 31.7853 10.9693 31.7853 10.9693C31.6534 11.311 31.6644 11.5755 31.6863 11.7959C31.6863 11.9061 31.6973 12.0164 31.6754 12.0935C31.6534 12.1707 31.6314 12.2258 31.6094 12.2809C31.5654 12.4021 31.5214 12.5123 31.4884 12.7437C31.4884 12.7657 31.3565 13.4161 31.3126 13.5703C31.2685 13.7136 31.1806 14.0112 31.1586 14.0773C31.2685 14.1104 32.0601 14.3639 32.3131 14.4521C32.489 14.5292 32.9728 14.7055 33.3137 14.7055H33.4017C33.4896 14.6945 33.5446 14.6724 33.5775 14.6284C33.6105 14.5622 33.5666 14.4631 33.5226 14.3418C33.5116 14.3088 33.4896 14.2647 33.4786 14.2206C33.4456 14.1324 33.4017 14.0993 33.3686 14.0663C33.3137 14.0222 33.2917 14.0001 33.3686 13.89C33.4126 13.8128 33.4896 13.6695 33.5665 13.5042C33.6765 13.2728 33.7975 13.0193 33.9074 12.8649C34.1053 12.5784 34.3142 12.325 34.4462 12.2037L34.5342 12.1155C34.6441 12.0053 34.743 11.9061 34.864 11.8952C34.985 11.8841 35.0949 11.862 35.1499 11.8511C34.743 11.4654 35.1279 10.9914 35.1279 10.9803Z"
      fill="black" stroke="black" stroke-width="0.287999" stroke-miterlimit="22.926" />
    <path
      d="M33.6765 5.77839C33.4456 5.8666 33.3027 6.03194 33.2477 6.18622C33.4456 6.02088 33.6765 5.98784 33.7865 5.97678C33.7534 5.8666 33.6984 5.81143 33.6765 5.77839ZM33.7315 6.56093C33.7534 6.49478 33.8304 6.30746 33.8194 6.12007C33.6985 6.13106 33.3686 6.16409 33.1817 6.42863C33.1817 6.47273 33.1817 6.59397 33.2257 6.70415C33.3027 6.66012 33.4457 6.58291 33.7315 6.56093ZM34.2262 5.81143C34.1822 5.80052 34.0283 5.74536 33.8854 5.74536H33.8414C33.8744 5.78946 33.9074 5.84455 33.9404 5.93267C33.9954 6.07604 34.0284 6.3405 33.8524 6.71521C33.8854 6.75932 33.9624 6.84744 34.1273 6.90253C34.1971 6.80834 34.2527 6.70437 34.2922 6.59397C34.3802 6.32951 34.3582 6.0649 34.2262 5.81143ZM34.4461 6.68217C34.4022 6.78137 34.3582 6.8585 34.3142 6.91359C34.5121 6.88048 34.5891 6.70415 34.5891 6.68217H34.4461ZM34.5891 6.68217C34.666 6.38452 34.5671 6.16409 34.4681 6.02088C34.5301 6.23819 34.5224 6.46946 34.4461 6.68217H34.5891ZM34.3802 7.05689C34.3802 7.05689 34.0723 7.15608 33.7095 6.75924C33.5226 6.79235 33.5555 6.79235 33.4786 6.79235C33.4786 6.79235 33.7095 7.3875 34.3472 7.06787L34.3802 7.05689Z"
      fill="black" />
    <path
      d="M33.6105 7.07892C33.4456 6.99071 33.3906 6.83643 33.3906 6.83643C33.3906 6.83643 33.3026 6.84742 33.3026 6.86947C33.3026 6.88046 33.4236 7.0458 33.6105 7.07892Z"
      fill="black" />
    <path
      d="M43.1738 8.07481V11.2539H45.6222V12.3135H43.1738V16.5522H46.2259V17.6118H42V11.2538L43.1738 11.2539L42 8.07481V7.01512H46.2259V8.07481H43.1738ZM50.653 9.33133V8.20852C50.653 8.11011 50.5971 8.0597 50.4853 8.0597H48.6575C48.5457 8.0597 48.4898 8.11011 48.4898 8.21109V11.1024C48.4898 11.1731 48.5233 11.2185 48.5904 11.2387H50.4854C50.8655 11.2387 51.1841 11.3573 51.4412 11.5944C51.6983 11.8291 51.8269 12.1141 51.8269 12.4472V16.4184C51.8269 16.7212 51.7207 16.9836 51.5082 17.2031C51.2959 17.4252 51.0276 17.5614 50.7033 17.6118H48.4394C48.1153 17.5614 47.847 17.4252 47.6345 17.2031C47.4221 16.981 47.3159 16.7187 47.3159 16.4159V15.2806H48.4898V16.4033C48.4898 16.5017 48.5457 16.5522 48.6575 16.5522H50.4852C50.597 16.5522 50.653 16.5017 50.653 16.4008V12.4346C50.653 12.3639 50.6195 12.3185 50.5523 12.2983H48.6573C48.2884 12.2983 47.9726 12.1797 47.7099 11.9426C47.4472 11.7029 47.3159 11.4178 47.3159 11.0847V8.19847C47.3159 7.89568 47.4221 7.63332 47.6345 7.40876C47.8469 7.18669 48.1152 7.05049 48.4394 7.00008H50.7034C51.0276 7.05049 51.296 7.18677 51.5083 7.40876C51.7208 7.63083 51.827 7.89318 51.827 8.19598V9.33125L50.653 9.33133ZM56.2876 7.01519C56.6565 7.01519 56.9723 7.13379 57.2351 7.37089C57.4977 7.60808 57.6291 7.89318 57.6291 8.22621V11.1024C57.6291 11.4355 57.4977 11.7206 57.2351 11.9577C56.9723 12.1949 56.6565 12.3135 56.2876 12.3135H54.0907V17.6118H52.9169V7.01519H54.0907H56.2876ZM56.4553 8.22621C56.4553 8.1253 56.3994 8.07481 56.2876 8.07481H54.0907V11.2539H56.2876C56.3994 11.2539 56.4553 11.2033 56.4553 11.1024V8.22621ZM62.3078 7C62.6321 7.05049 62.9003 7.18677 63.1127 7.40876C63.3252 7.63083 63.4314 7.89318 63.4314 8.19847V16.4135C63.4314 16.7187 63.3252 16.9811 63.1127 17.2031C62.9003 17.4252 62.632 17.5614 62.3078 17.6118H59.8427C59.5186 17.5614 59.2501 17.4252 59.0378 17.2031C58.8253 16.981 58.7191 16.7187 58.7191 16.4134V8.19847C58.7191 7.89318 58.8253 7.63075 59.0378 7.40876C59.2501 7.18669 59.5186 7.05049 59.8427 7.00008L62.3078 7ZM62.2575 8.21109C62.2575 8.11011 62.2072 8.0597 62.1066 8.0597H60.0607C59.9489 8.0597 59.893 8.11011 59.893 8.21109V16.4007C59.893 16.5017 59.9489 16.5521 60.0607 16.5521H62.1066C62.2072 16.5521 62.2575 16.5017 62.2575 16.4007V8.21109ZM67.892 7.01519C68.261 7.01519 68.5768 7.13379 68.8395 7.37089C69.1023 7.60808 69.2337 7.89318 69.2337 8.22621V11.1024C69.2337 11.4355 69.1023 11.7206 68.8395 11.9577C68.5768 12.1949 68.261 12.3135 67.892 12.3135H67.4896L69.2337 17.6118H67.9759L65.9469 11.2538H67.892C68.0039 11.2538 68.0597 11.2033 68.0597 11.1024V8.22621C68.0597 8.1253 68.0039 8.07481 67.892 8.07481H65.6953V17.6118H64.5214V7.01519H67.892ZM74.7844 8.07489H73.1409V17.6118H71.967V8.07473H70.3237V7.01504H74.7844V8.07489ZM77.0482 8.07489V11.2538H79.4966V12.3135H77.0482V16.5522H80.1003V17.6118H75.8743V11.2538H77.0482L75.8743 8.07481V7.01512H80.1002V8.07481L77.0482 8.07489ZM84.5274 9.33133V8.20852C84.5274 8.11011 84.4715 8.0597 84.3597 8.0597H82.5318C82.42 8.0597 82.3642 8.11011 82.3642 8.21109V11.1024C82.3642 11.1731 82.3977 11.2185 82.4647 11.2387H84.3597C84.7398 11.2387 85.0584 11.3573 85.3156 11.5944C85.5727 11.8291 85.7013 12.1141 85.7013 12.4472V16.4184C85.7013 16.7212 85.5951 16.9836 85.3826 17.2031C85.1702 17.4252 84.9019 17.5614 84.5777 17.6118H82.3138C81.9897 17.5614 81.7213 17.4252 81.5089 17.2031C81.2965 16.981 81.1902 16.7187 81.1902 16.4159V15.2806H82.3642V16.4033C82.3642 16.5017 82.42 16.5522 82.5318 16.5522H84.3597C84.4715 16.5522 84.5274 16.5017 84.5274 16.4008V12.4346C84.5274 12.3639 84.4939 12.3185 84.4267 12.2983H82.5318C82.1629 12.2983 81.8471 12.1797 81.5843 11.9426C81.3216 11.7029 81.1903 11.4178 81.1903 11.0847V8.19847C81.1903 7.89568 81.2964 7.63332 81.5088 7.40876C81.7213 7.18669 81.9896 7.05049 82.3138 7.00008H84.5777C84.9019 7.05049 85.1702 7.18677 85.3826 7.40876C85.5951 7.63083 85.7013 7.89318 85.7013 8.19598V9.33125L84.5274 9.33133Z"
      fill="black" />
    <path fill-rule="evenodd" clip-rule="evenodd"
      d="M4.51994 7.7864C4.62747 7.56059 4.92123 7.3358 4.92645 7.03815C4.79009 7.05124 4.71505 7.18074 4.65482 7.3044C4.6203 7.15168 4.66963 7.30393 4.65786 7.19866C4.64017 7.04009 4.6997 7.17295 4.62256 7.07617C4.44312 7.26224 4.43244 7.40218 4.22448 7.54563C4.30193 7.37 4.38094 7.35084 4.40743 7.19009C4.32569 7.20045 3.97436 7.59192 3.90002 7.68363C3.68621 7.9473 3.71613 8.06886 3.5585 8.37056C3.48542 8.51042 2.94871 8.84992 2.76794 9.07962C2.68363 9.18668 2.6294 9.23203 2.53379 9.34883C2.29505 9.64032 1.86891 10.4571 2.18331 10.8309C2.35668 11.037 2.98494 11.5622 3.28524 11.7216C3.30838 12.2099 3.46664 12.129 3.8175 12.2781C4.42215 12.535 4.44132 13.0612 4.66713 13.6396C5.09124 14.7256 4.57753 14.7217 4.49548 15.4041C4.45589 15.7337 4.60651 15.6467 4.50155 15.8879C4.29577 16.3608 4.26429 15.9215 4.02469 17.0989C3.80496 18.1795 3.65925 17.8443 4.02337 18.2487L3.89846 18.5253C3.78096 18.5386 3.814 18.4795 3.63455 18.4336C3.38396 18.3694 2.89043 18.4358 2.63127 18.4491C2.06815 18.4782 2.16796 18.3846 2.07555 18.246C1.90701 17.9935 1.92182 18.1461 1.81117 17.7384C1.08193 17.6551 1.13562 18.3294 1.10188 18.4521C1.00199 18.8149 0.660077 18.9022 0.517407 19.3143C0.328844 19.8591 0.817239 19.9236 1.13016 19.5677C1.33182 19.3384 1.23582 19.3466 1.57173 19.3087C1.80876 19.2818 1.82286 19.1317 1.96623 19.0209C2.29622 19.1679 2.65441 19.3334 2.99157 19.4855C3.9428 19.915 3.69291 20.1762 4.45005 19.4775C5.11205 18.8666 4.93026 19.127 5.15475 19.0328C5.24046 18.9968 5.59148 18.554 5.66823 18.4044L5.99471 18.598L5.91391 19.6334C5.10574 19.8181 4.84455 20.2251 4.42434 20.7072C3.4756 21.7957 3.41903 21.1264 2.78438 21.1172C2.48938 21.7473 2.66828 21.7295 2.56028 22.3932C2.51447 22.6751 2.20778 23.3283 2.51314 23.5675C2.73669 23.5589 2.73965 23.3088 2.85591 23.0874C2.95627 22.8964 3.10836 22.8261 3.27309 22.7107C3.64149 22.4528 3.5751 22.4822 3.65138 22.2494C3.86776 21.5883 5.66847 21.1978 6.21055 20.83C6.42155 20.6869 6.92561 20.2369 6.99987 19.9855C7.07856 19.7193 7.2224 18.8437 7.2563 18.5303C7.33196 17.8322 7.39912 17.7719 7.33772 16.9964C7.29463 16.4521 7.23627 15.9484 7.22801 15.3873C7.37006 15.3265 7.55691 15.1857 7.48896 14.9376C7.40832 14.6433 7.29783 14.8651 7.32876 14.4559C7.34061 14.3 7.28131 13.9051 7.23705 13.7819C7.13046 13.4854 7.17105 13.4457 7.14106 13.1221C7.1074 12.7594 6.90722 12.1246 7.06493 11.8239C7.1875 11.5901 7.57756 11.4404 7.63374 11.3177L7.66335 11.1036C7.66654 11.0155 8.83813 10.3711 9.165 10.1036C9.38161 9.92621 9.5602 9.66222 9.7377 9.4146C9.94621 9.12396 9.76451 9.28759 10.0851 9.13798C10.2161 9.07689 10.3152 8.95737 10.3663 8.83098L10.3205 8.81906C10.3156 8.81891 10.3026 8.81719 10.2973 8.8175L10.1807 8.8609C10.162 8.6273 10.2698 8.67086 10.4 8.55266C10.4655 8.4932 10.4468 8.55188 10.4598 8.31672C9.85139 8.27503 9.96803 8.73577 9.418 9.13494C9.27011 9.24239 8.99802 9.39138 8.81748 9.47833C8.4257 9.66713 8.54009 9.62139 8.29714 9.86925C8.16538 10.0037 7.16139 10.3509 6.95444 10.388C6.66786 10.4393 6.4221 10.3371 6.17011 10.5233C6.01754 10.6361 5.77755 10.8571 5.55829 10.7268C5.44087 10.5934 5.75488 10.2755 5.75636 10.2711C5.84636 9.99875 5.40105 9.4615 5.40105 9.4615C5.36271 9.36722 5.37986 9.32834 5.32999 9.23024C5.22184 9.01729 5.21412 9.19299 5.17945 8.96555C5.0988 8.43749 4.51683 8.78548 4.32873 8.94342C4.14843 9.09482 4.13237 9.39808 4.0049 9.69689C3.81532 10.1412 4.05376 10.1348 4.48628 10.6522C4.64991 10.848 4.6429 10.7264 4.80567 10.8111C4.57799 10.9472 4.04846 10.9269 3.78353 10.8297C3.53497 10.7384 3.3168 10.5158 2.96983 10.4088C3.11086 10.1572 3.20678 10.0267 3.32701 9.67897C3.43523 9.36613 3.67608 8.77317 3.91997 8.65185C4.17804 8.52352 4.73219 8.29771 4.82024 8.02102C4.72651 7.9445 4.63768 7.99468 4.57807 8.02195C4.67485 7.83261 4.89419 7.71511 4.87853 7.50145C4.63386 7.53784 4.71357 7.7483 4.51994 7.7864Z"
      fill="black" />
  </g>
  <defs>
    <clipPath id="clip0_1_38">
      <rect width="86" height="24" fill="white" />
    </clipPath>
  </defs>
</svg>